<svg version="1.2" xmlns="http://www.w3.org/2000/svg" fill="#FFFFFF" viewBox="0 0 1024 1024" width="72" height="72"><style></style><path  d="m498.8 524h-179.3q-26.9-48.5-89.1-148.5l-66.9 66.3v82.2h-142.2q4.6-110.8 4.6-207.3 0-96.5-4.6-207.3h142.2v167.3q105.1-104 149.7-167.3h185l-179.9 178.1q40 56 89.7 121.7 50.3 65.7 90.8 114.8zm122.2-345.5q-36 0-53.7-17.7-17.1-17.7-17.1-46.3 0-28 17.1-46.3 17.7-18.2 53.7-18.2 34.3 0 52.6 18.8 18.2 18.3 18.2 45.7 0 28.6-17.7 46.3-17.7 17.7-53.1 17.7zm69.7 345.5h-135.9q4-92 4-151.9 0-71.4-4.6-159.9h137.1q-4.6 85.1-4.6 159.9 0 62.8 4 151.9zm311.3-310.7v101.1q-52.6-3.4-96-5.1l-0.5 60.5q0 30.8 13.1 48.5 13.7 17.2 48 17.2 13.1 0 25.1-2.3-2.3 21.1-2.3 42.8 0 10.3 1.2 46.9-25.2 4.5-42.3 5.7-17.1 1.1-44.6 1.1-66.8 0-94.8-32-27.4-32.5-27.4-90.2l0.6-96.5q-26.9 1.1-56 3.4v-101.1q29.7 0 50.3-18.8 20.5-18.9 24.5-45.2h155.4q-29.1 40-64.6 64zm-661.9 544.5q20.6-4 40.5-4 34.9 0 56.6 12 22.3 11.4 32 29.7 9.7 17.7 9.7 37.1 0 45.2-29.7 77.1-29.7 31.5-80.5 48-50.9 16-113.1 16-180.5 0-233.6-125.6l32-8q35.4-8.6 59.9-16 25.2-8 44-17.7 11.4 28.5 32.6 41.1 21.7 12 59.4 12 39.9 0 65.1-9.2 25.1-9.1 25.1-27.4 0-9.7-9.7-14.8-9.7-5.2-30.9-6.9-21.1-2.3-59.4-2.3h-43.4v-99.9h26.3q43.4 0 70.8-3.4 27.4-4 27.4-16.6 0-14.3-14.8-22.8-14.3-9.2-45.1-9.2-40 0-65.1 16.6-24.6 16.5-38.3 48-61.1-24.6-130.2-34.9 27.4-61.7 83.9-95.4 57.2-33.7 146.8-33.7 58.3 0 104.5 15.5 46.9 14.8 73.1 41.7 26.9 26.8 26.9 59.9 0 19.4-9.1 34.9-9.2 14.8-36 29.7-26.9 14.2-77.7 28.5zm367.2-210.7q107.4 0 169.7 26.2 62.2 25.7 86.8 72 25.1 45.7 25.1 112.5 0 63.4-28.5 110.8-28.6 47.4-85.7 73.7-57.1 25.7-140.5 25.7-50.9 0-103.4 0-52.5 0-106.2-0.6 4.5-112.5 4.5-209.6 0-98.2-4.5-205 67.9-5.7 182.7-5.7zm-39.9 307.2h82.8q53.1 0 70.8-25.7 17.7-25.7 17.7-70.8 0-43.4-18.8-70.2-18.3-26.9-69.7-26.9-55.4 0-82.8 3.5z"/></svg>